# xmcd
#
# Track frame offsets:
#	150
#	15615
#	31625
#	56565
#	81932
#
# Disc length: 1312 seconds
#
# Revision: 1
# Processed by: cddbd v1.5.1PL0 Copyright (c) Steve Scherf et al.
# Submitted via: audiograbber 1.83.01
#
DISCID=2f051e05
DTITLE=Stella Getz - Ta-Di-Di-Boom
DYEAR=1996
DGENRE=Pop
TTITLE0=Ta-Di-Di-Boom (Single Mix)
TTITLE1=Ta-Di-Di-Boom (Single Special Mix)
TTITLE2=Ta-Di-Di-Boom (Special Club Mix)
TTITLE3=Ta-Di-Di-Boom (Extended Mix)
TTITLE4=Ta-Di-Di-Boom (Video Mix)
EXTD=
EXTT0=
EXTT1=
EXTT2=
EXTT3=
EXTT4=
PLAYORDER=
